<svg width="100" height="100" version="1.1" xmlns="http://www.w3.org/2000/svg" desc="Created with imagetracer.js version 1.2.6" ><path fill="rgb(71,60,183)" stroke="rgb(71,60,183)" stroke-width="1" opacity="1" d="M 81.5 24 L 80.5 26 L 81.5 24 Z " /><path fill="rgb(71,60,183)" stroke="rgb(71,60,183)" stroke-width="1" opacity="1" d="M 36.5 56 L 37.5 58 L 36.5 56 Z " /><path fill="rgb(0,0,254)" stroke="rgb(0,0,254)" stroke-width="1" opacity="1" d="M 14 21 L 31.5 21 L 32 23 L 26 24 L 36 56.5 L 37.5 58 L 50 21 Q 53.8 19.5 53 22.5 L 66.5 58 L 77 24 L 72 23 L 72.5 21 L 86 21 Q 87.1 23.7 84.5 23 L 80 25.5 L 70 56.5 L 65.5 66 Q 61.8 67.3 63 63.5 L 51 29 Q 48 27.8 49 31.5 L 37 66 L 33 64.5 L 20 24 L 14 23 L 14 21 Z " /><path fill="rgb(203,171,51)" stroke="rgb(203,171,51)" stroke-width="1" opacity="1" d="M 32.5 21 L 33 22.5 L 31 23.5 L 32.5 21 Z " /><path fill="rgb(203,171,51)" stroke="rgb(203,171,51)" stroke-width="1" opacity="1" d="M 71.5 21 L 73 23.5 L 71 22.5 L 71.5 21 Z " /><path fill="rgb(203,171,51)" stroke="rgb(203,171,51)" stroke-width="1" opacity="1" d="M 86.5 21 L 87 22.5 L 85 23.5 L 86.5 21 Z " /><path fill="rgb(203,171,51)" stroke="rgb(203,171,51)" stroke-width="1" opacity="1" d="M 18.5 24 L 19.5 26 L 18.5 24 Z " /><path fill="rgb(203,171,51)" stroke="rgb(203,171,51)" stroke-width="1" opacity="1" d="M 26 24 L 28 24.5 L 26 25.5 L 26 24 Z " /><path fill="rgb(203,171,51)" stroke="rgb(203,171,51)" stroke-width="1" opacity="1" d="M 75.5 24 Q 77.8 23.3 77 25.5 L 75.5 24 Z " /><path fill="rgb(203,171,51)" stroke="rgb(203,171,51)" stroke-width="1" opacity="1" d="M 36.5 55 Q 38.8 54.3 38 56.5 L 36.5 55 Z " /><path fill="rgb(255,215,0)" stroke="rgb(255,215,0)" stroke-width="1" opacity="1" d="M 0 0 L 100 0 L 100 100 L 0 100 L 0 0 Z M 14 21 Q 12 26 18 24 L 20 27 L 33 65 L 33 66 L 38 66 L 49 34 Q 48 30 51 31 L 62 65 Q 63 67 67 66 L 68 65 L 81 25 L 86 24 L 87 21 L 72 21 L 71 23 L 76 26 L 67 57 L 54 23 L 54 21 L 49 21 L 38 53 Q 39 56 36 55 L 27 26 L 33 23 L 33 21 L 14 21 Z " /></svg>